<svg id="svg" fill="#3f74de" stroke="#3f74de" width="200" height="200" version="1.1" viewBox="144 144 512 512" xmlns="http://www.w3.org/2000/svg" stroke-width="17">
    <g id="IconSvg_bgCarrier" stroke-width="0"></g>
    <g id="IconSvg_tracerCarrier" stroke-linecap="round" stroke-linejoin="round" stroke="#CCCCCC" stroke-width="10">
      <g xmlns="http://www.w3.org/2000/svg">
  <path d="m478.72 274.05v-31.488c0-8.3516-3.3164-16.359-9.2227-22.266s-13.914-9.2227-22.266-9.2227h-94.465c-8.3516 0-16.359 3.3164-22.266 9.2227-5.9023 5.9062-9.2227 13.914-9.2227 22.266v31.488h-89.898c-0.015625 45.152 17.602 88.523 49.102 120.87 31.496 32.352 74.383 51.121 119.52 52.312 45.023-1.3516 87.75-20.191 119.11-52.523 31.363-32.336 48.895-75.617 48.875-120.66zm-125.95 0v-31.488h94.465v31.488z"></path>
  <path d="m289.79 443.61v145.32h220.42v-145.32c-32.211 22.844-70.723 35.113-110.21 35.113-39.488 0-78-12.27-110.21-35.113z"></path>
  <path d="m195.32 305.54v251.9c0 8.3516 3.3203 16.363 9.2227 22.266 5.9062 5.9062 13.914 9.2227 22.266 9.2227h31.488v-172.08c-33.77-34.867-54.176-80.523-57.621-128.94-3.4609 5.2305-5.3203 11.359-5.3555 17.633z"></path>
  <path d="m598.85 287.27c-3.2734 48.465-23.508 94.227-57.152 129.26v172.39h31.488c8.3516 0 16.359-3.3164 22.266-9.2227 5.9062-5.9023 9.2227-13.914 9.2227-22.266v-251.9c0.003906-6.5469-2.0352-12.93-5.8242-18.266z"></path>
 </g>

      </g>
     <g id="IconSvg_iconCarrier">
      <g xmlns="http://www.w3.org/2000/svg">
  <path d="m478.72 274.05v-31.488c0-8.3516-3.3164-16.359-9.2227-22.266s-13.914-9.2227-22.266-9.2227h-94.465c-8.3516 0-16.359 3.3164-22.266 9.2227-5.9023 5.9062-9.2227 13.914-9.2227 22.266v31.488h-89.898c-0.015625 45.152 17.602 88.523 49.102 120.87 31.496 32.352 74.383 51.121 119.52 52.312 45.023-1.3516 87.75-20.191 119.11-52.523 31.363-32.336 48.895-75.617 48.875-120.66zm-125.95 0v-31.488h94.465v31.488z"></path>
  <path d="m289.79 443.61v145.32h220.42v-145.32c-32.211 22.844-70.723 35.113-110.21 35.113-39.488 0-78-12.27-110.21-35.113z"></path>
  <path d="m195.32 305.54v251.9c0 8.3516 3.3203 16.363 9.2227 22.266 5.9062 5.9062 13.914 9.2227 22.266 9.2227h31.488v-172.08c-33.77-34.867-54.176-80.523-57.621-128.94-3.4609 5.2305-5.3203 11.359-5.3555 17.633z"></path>
  <path d="m598.85 287.27c-3.2734 48.465-23.508 94.227-57.152 129.26v172.39h31.488c8.3516 0 16.359-3.3164 22.266-9.2227 5.9062-5.9023 9.2227-13.914 9.2227-22.266v-251.9c0.003906-6.5469-2.0352-12.93-5.8242-18.266z"></path>
 </g>

      </g>
      </svg>